<svg xmlns="http://www.w3.org/2000/svg" width="39" height="36" viewBox="0 0 39 36"><path fill="#F8654F" fill-rule="evenodd"
                                                                      d="M14.34 32.911h8.892c1.86 0 2.74-.6 3.706-1.64L32.622 25c.952-1.055 1.216-1.772 1.216-3.223v-6.694c0-1.465-.264-2.168-1.216-3.223l-5.684-6.27c-.966-1.04-1.845-1.654-3.706-1.654h-8.891c-1.86 0-2.754.615-3.706 1.655l-5.684 6.27c-.967 1.054-1.216 1.757-1.216 3.222v6.694c0 1.45.25 2.168 1.216 3.223l5.684 6.27c.952 1.04 1.845 1.64 3.706 1.64zm4.454-11.763c-.762 0-1.187-.424-1.201-1.2l-.19-7.984c-.016-.777.556-1.333 1.376-1.333.806 0 1.406.571 1.392 1.348l-.205 7.968c-.015.791-.44 1.201-1.172 1.201zm0 4.908c-.879 0-1.64-.703-1.64-1.568 0-.864.746-1.582 1.64-1.582.893 0 1.64.703 1.64 1.582 0 .88-.761 1.568-1.64 1.568z" /></svg>
