<svg xmlns="http://www.w3.org/2000/svg" width="68" height="68"    viewBox="0 0 68 68"><text xml:space="preserve" x="79.814" y="12.39" fill="none"
                                                                      stroke-linecap="round" stroke-linejoin="round" stroke-miterlimit="9.8" stroke-width="1.562" font-family="SF Compact Rounded" font-size="96" font-weight="400" paint-order="stroke fill markers" style="-inkscape-font-specification:&quot;SF Compact Rounded&quot;"/><g fill="#314b95" fill-rule="evenodd"><path d="M59.677 68H26.3a3.593 3.593 0 0 1 0-7.187h30.682V34.446a3.759 3.759 0 1 1 7.518 0v28.731A4.823 4.823 0 0 1 59.677 68zM8.323 0H41.7a3.593 3.593 0 1 1 0 7.187H11.018v26.367a3.759 3.759 0 0 1-7.518 0V4.823A4.823 4.823 0 0 1 8.323 0Z"/><path d="M23.008 52.326h10.177c11.023 0 17.509-6.87 17.509-18.56 0-11.664-6.511-18.431-17.509-18.431H23.008c-1.794 0-2.87 1.128-2.87 2.973v31.044c0 1.846 1.076 2.974 2.87 2.974zm2.871-4.974v-27.07h6.768c7.819 0 12.176 4.82 12.176 13.535 0 8.742-4.332 13.535-12.176 13.535z" /></g></svg>
