<svg xmlns="http://www.w3.org/2000/svg" width="60" height="60"    viewBox="0 0 60 60"><path fill="#BABFB8" fill-rule="evenodd"
                                                                      d="M29.273 55.275c13.623 0 24.902-11.303 24.902-24.902 0-13.623-11.304-24.902-24.927-24.902C15.649 5.47 4.37 16.75 4.37 30.373c0 13.599 11.304 24.902 24.903 24.902zm-7.105-15.088c-1.245 0-1.807-.683-1.807-1.66V22.17c0-.952.562-1.636 1.807-1.636h2.466c1.27 0 1.83.684 1.83 1.636v16.357c0 .977-.56 1.66-1.83 1.66zm11.792 0c-1.27 0-1.831-.683-1.831-1.66V22.17c0-.952.561-1.636 1.831-1.636h2.466c1.22 0 1.782.684 1.782 1.636v16.357c0 .977-.561 1.66-1.782 1.66z"/></svg>
