<?xml version="1.0" encoding="UTF-8" standalone="no"?>
<svg
   width="39px"
   height="36px"
   viewBox="0 0 39 36"
   version="1.1"
   id="svg1"
   sodipodi:docname="alert.svg"
   inkscape:version="1.3.2 (091e20e, 2023-11-25)"
   xmlns:inkscape="http://www.inkscape.org/namespaces/inkscape"
   xmlns:sodipodi="http://sodipodi.sourceforge.net/DTD/sodipodi-0.dtd"
   xmlns="http://www.w3.org/2000/svg"
   xmlns:svg="http://www.w3.org/2000/svg">
  <defs
     id="defs1" />
  <sodipodi:namedview
     id="namedview1"
     pagecolor="#ffffff"
     bordercolor="#000000"
     borderopacity="0.25"
     inkscape:showpageshadow="2"
     inkscape:pageopacity="0.0"
     inkscape:pagecheckerboard="0"
     inkscape:deskcolor="#d1d1d1"
     showgrid="false"
     inkscape:zoom="6.5555556"
     inkscape:cx="19.525424"
     inkscape:cy="18"
     inkscape:window-width="1312"
     inkscape:window-height="449"
     inkscape:window-x="0"
     inkscape:window-y="25"
     inkscape:window-maximized="0"
     inkscape:current-layer="svg1" />
  <title
     id="title1">􀘰</title>
  <g
     id="Page-2-Copy"
     stroke="none"
     stroke-width="1"
     fill="none"
     fill-rule="evenodd"
     font-family="SFProRounded-Medium, SF Pro Rounded"
     font-size="30"
     font-weight="400">
    <g
       id="Apple-TV"
       transform="translate(-1264, -622)"
       fill="#F8654F">
      <path
         d="m 1278.3408,654.91113 h 8.8916 c 1.8604,0 2.7393,-0.60058 3.7061,-1.64062 l 5.6836,-6.26953 c 0.9521,-1.05469 1.2158,-1.77246 1.2158,-3.22266 v -6.69434 c 0,-1.46484 -0.2637,-2.16796 -1.2158,-3.22265 l -5.6836,-6.26953 c -0.9668,-1.04004 -1.8457,-1.65528 -3.7061,-1.65528 h -8.8916 c -1.8603,0 -2.7539,0.61524 -3.706,1.65528 l -5.6836,6.26953 c -0.9668,1.05469 -1.2158,1.75781 -1.2158,3.22265 v 6.69434 c 0,1.4502 0.249,2.16797 1.2158,3.22266 l 5.6836,6.26953 c 0.9521,1.04004 1.8457,1.64062 3.706,1.64062 z m 4.4531,-11.76269 c -0.7617,0 -1.1865,-0.42481 -1.2011,-1.20117 l -0.1905,-7.9834 c -0.015,-0.77637 0.5567,-1.33301 1.377,-1.33301 0.8057,0 1.4062,0.57129 1.3916,1.34766 l -0.2051,7.96875 c -0.015,0.79101 -0.4394,1.20117 -1.1719,1.20117 z m 0,4.90722 c -0.8789,0 -1.6406,-0.70312 -1.6406,-1.56738 0,-0.86426 0.7471,-1.58203 1.6406,-1.58203 0.8936,0 1.6407,0.70312 1.6407,1.58203 0,0.87891 -0.7617,1.56738 -1.6407,1.56738 z"
         id="􀘰"
         aria-label="􀘰" />
    </g>
  </g>
</svg>
