<svg xmlns="http://www.w3.org/2000/svg" width="50" height="41" viewBox="0 0 50 41"><path fill="#000" fill-rule="evenodd"
                                                                      d="M9.724 36.4H39.29c3.588 0 5.366-1.76 5.366-5.28V10.236c0-3.52-1.778-5.298-5.366-5.298H9.724c-3.572 0-5.366 1.778-5.366 5.298V31.12c0 3.52 1.794 5.28 5.366 5.28zm.034-2.75c-1.709 0-2.649-.906-2.649-2.684V10.39c0-1.777.94-2.7 2.65-2.7h29.496c1.692 0 2.65.923 2.65 2.7v20.576c0 1.778-.958 2.683-2.65 2.683zm7.64-13.057c2.084.017 3.742-1.743 3.742-4.085 0-2.187-1.658-3.999-3.743-3.999-2.068 0-3.742 1.812-3.742 4 0 2.34 1.674 4.084 3.742 4.084zm11.142-5.554h9.33c.599 0 1.06-.462 1.06-1.06a1.04 1.04 0 0 0-1.06-1.042h-9.33c-.615 0-1.077.461-1.077 1.042 0 .598.462 1.06 1.077 1.06zm0 6.699h9.33c.599 0 1.06-.479 1.06-1.077 0-.58-.461-1.025-1.06-1.025h-9.33c-.615 0-1.077.444-1.077 1.025 0 .598.462 1.077 1.077 1.077zM10.732 28.42H24.08c.564 0 .838-.376.838-.889 0-1.606-2.41-5.742-7.52-5.742-5.11 0-7.502 4.136-7.502 5.742 0 .513.273.889.837.889zm17.808 0h9.33c.599 0 1.06-.444 1.06-1.025 0-.599-.461-1.077-1.06-1.077h-9.33c-.615 0-1.077.478-1.077 1.077 0 .58.462 1.025 1.077 1.025z" /></svg>
