<?xml version="1.0" encoding="UTF-8" standalone="no"?>
<svg
   width="50px"
   height="41px"
   viewBox="0 0 50 41"
   version="1.1"
   id="svg1"
   sodipodi:docname="contact_info.svg"
   inkscape:version="1.3.2 (091e20e, 2023-11-25)"
   xmlns:inkscape="http://www.inkscape.org/namespaces/inkscape"
   xmlns:sodipodi="http://sodipodi.sourceforge.net/DTD/sodipodi-0.dtd"
   xmlns="http://www.w3.org/2000/svg"
   xmlns:svg="http://www.w3.org/2000/svg">
  <defs
     id="defs1" />
  <sodipodi:namedview
     id="namedview1"
     pagecolor="#ffffff"
     bordercolor="#000000"
     borderopacity="0.25"
     inkscape:showpageshadow="2"
     inkscape:pageopacity="0.0"
     inkscape:pagecheckerboard="0"
     inkscape:deskcolor="#d1d1d1"
     inkscape:zoom="5.7560976"
     inkscape:cx="25.016949"
     inkscape:cy="20.5"
     inkscape:window-width="1312"
     inkscape:window-height="449"
     inkscape:window-x="0"
     inkscape:window-y="25"
     inkscape:window-maximized="0"
     inkscape:current-layer="svg1" />
  <title
     id="title1">􀿒</title>
  <g
     id="Page-2-Copy"
     stroke="none"
     stroke-width="1"
     fill="none"
     fill-rule="evenodd"
     font-family="SFProRounded-Medium, SF Pro Rounded"
     font-size="35"
     font-weight="400">
    <g
       id="Apple-TV"
       transform="translate(-1064, -527)"
       fill="#000000">
      <path
         d="m 1073.7241,563.40088 h 29.5655 c 3.5888,0 5.3662,-1.76026 5.3662,-5.28076 v -20.88379 c 0,-3.52051 -1.7774,-5.29785 -5.3662,-5.29785 h -29.5655 c -3.5718,0 -5.3662,1.77734 -5.3662,5.29785 v 20.88379 c 0,3.5205 1.7944,5.28076 5.3662,5.28076 z m 0.034,-2.75147 c -1.709,0 -2.6489,-0.90576 -2.6489,-2.6831 v -20.57617 c 0,-1.77735 0.9399,-2.7002 2.6489,-2.7002 h 29.4971 c 1.6919,0 2.6489,0.92285 2.6489,2.7002 v 20.57617 c 0,1.77734 -0.957,2.6831 -2.6489,2.6831 z m 7.6392,-13.05664 c 2.0849,0.0171 3.7426,-1.74316 3.7426,-4.08447 0,-2.1875 -1.6577,-3.99902 -3.7426,-3.99902 -2.0679,0 -3.7427,1.81152 -3.7427,3.99902 0,2.34131 1.6748,4.08447 3.7427,4.08447 z m 11.1425,-5.5542 h 9.3311 c 0.5981,0 1.0596,-0.46142 1.0596,-1.05957 0,-0.58105 -0.4615,-1.04248 -1.0596,-1.04248 h -9.3311 c -0.6152,0 -1.0766,0.46143 -1.0766,1.04248 0,0.59815 0.4614,1.05957 1.0766,1.05957 z m 0,6.69922 h 9.3311 c 0.5981,0 1.0596,-0.47851 1.0596,-1.07666 0,-0.58105 -0.4615,-1.02539 -1.0596,-1.02539 h -9.3311 c -0.6152,0 -1.0766,0.44434 -1.0766,1.02539 0,0.59815 0.4614,1.07666 1.0766,1.07666 z m -17.8076,6.68213 h 13.3472 c 0.564,0 0.8374,-0.37597 0.8374,-0.88867 0,-1.60645 -2.4097,-5.74219 -7.5195,-5.74219 -5.1099,0 -7.5025,4.13574 -7.5025,5.74219 0,0.5127 0.2735,0.88867 0.8374,0.88867 z m 17.8076,0 h 9.3311 c 0.5981,0 1.0596,-0.44433 1.0596,-1.02539 0,-0.59814 -0.4615,-1.07666 -1.0596,-1.07666 h -9.3311 c -0.6152,0 -1.0766,0.47852 -1.0766,1.07666 0,0.58106 0.4614,1.02539 1.0766,1.02539 z"
         id="􀿒"
         aria-label="􀿒" />
    </g>
  </g>
</svg>
