<?xml version="1.0" encoding="UTF-8" standalone="no"?>
<svg
   width="68"
   height="68"
   viewBox="0 0 68 68"
   version="1.1"
   id="svg1"
   sodipodi:docname="logo.svg"
   inkscape:version="1.3.2 (091e20e, 2023-11-25)"
   inkscape:export-filename="../../../../Desktop/detector-logo.png"
   inkscape:export-xdpi="96"
   inkscape:export-ydpi="96"
   xmlns:inkscape="http://www.inkscape.org/namespaces/inkscape"
   xmlns:sodipodi="http://sodipodi.sourceforge.net/DTD/sodipodi-0.dtd"
   xmlns="http://www.w3.org/2000/svg"
   xmlns:svg="http://www.w3.org/2000/svg"
   xmlns:rdf="http://www.w3.org/1999/02/22-rdf-syntax-ns#"
   xmlns:cc="http://creativecommons.org/ns#"
   xmlns:dc="http://purl.org/dc/elements/1.1/">
  <defs
     id="defs1" />
  <sodipodi:namedview
     id="namedview1"
     pagecolor="#ffffff"
     bordercolor="#000000"
     borderopacity="0.25"
     inkscape:showpageshadow="2"
     inkscape:pageopacity="0.0"
     inkscape:pagecheckerboard="0"
     inkscape:deskcolor="#d1d1d1"
     inkscape:zoom="1.7428088"
     inkscape:cx="146.31553"
     inkscape:cy="25.246602"
     inkscape:window-width="1920"
     inkscape:window-height="1027"
     inkscape:window-x="80"
     inkscape:window-y="43"
     inkscape:window-maximized="0"
     inkscape:current-layer="svg1" />
  <title
     id="title1">Group 2</title>
  <metadata
     id="metadata1">
    <rdf:RDF>
      <cc:Work
         rdf:about="">
        <dc:title>Group 2</dc:title>
      </cc:Work>
    </rdf:RDF>
  </metadata>
  <text
     xml:space="preserve"
     style="font-style:normal;font-variant:normal;font-weight:normal;font-stretch:normal;font-size:96px;font-family:'SF Compact Rounded';-inkscape-font-specification:'SF Compact Rounded';fill:none;stroke-width:1.562;stroke-linecap:round;stroke-linejoin:round;stroke-miterlimit:9.8;paint-order:stroke fill markers"
     x="79.81356"
     y="12.389831"
     id="text1"
     inkscape:label="D"><tspan
       sodipodi:role="line"
       id="tspan1"
       x="79.81356"
       y="12.389831" /></text>
  <g
     id="Page-2-Copy"
     stroke="none"
     stroke-width="1"
     fill="none"
     fill-rule="evenodd"
     style="fill:#314b95;fill-opacity:1"
     transform="translate(3.500023,-1.05e-5)">
    <g
       id="Apple-TV"
       transform="translate(-50,-43)"
       fill="#314b95"
       style="fill:#314b95;fill-opacity:1">
      <g
         id="Group-2"
         transform="translate(50,43)"
         style="fill:#314b95;fill-opacity:1">
        <path
           d="M 24.029026,30.687179 H 57.40661 c 1.984574,0 3.59339,1.608816 3.59339,3.593391 0,1.984574 -1.608816,3.59339 -3.59339,3.59339 H 26.724095 v 0 26.367115 C 26.724095,66.317072 25.041167,68 22.96517,68 20.889174,68 19.206246,66.317072 19.206246,64.241075 V 40.332741 35.50996 c 0,-2.663548 2.159232,-4.822781 4.82278,-4.822781 z"
           id="Rectangle"
           transform="rotate(180,40.1031,49.3436)"
           style="fill:#314b95;fill-opacity:1" />
        <path
           d="M 4.8227808,0 H 38.200364 c 1.984575,0 3.59339,1.6088156 3.59339,3.5933903 0,1.9845746 -1.608815,3.5933903 -3.59339,3.5933903 H 7.5178495 v 0 26.3671154 c 0,2.075997 -1.682928,3.758924 -3.7589248,3.758924 C 1.6829279,37.31282 0,35.629893 0,33.553896 V 9.6455616 4.8227808 C 0,2.1592325 2.1592325,0 4.8227808,0 Z"
           id="path1"
           style="fill:#314b95;fill-opacity:1" />
        <path
           d="M 19.508238,52.325642 H 29.68524 c 11.022949,0 17.508545,-6.870118 17.508545,-18.559571 0,-11.663818 -6.511231,-18.431396 -17.508545,-18.431396 H 19.508238 c -1.794434,0 -2.871094,1.12793 -2.871094,2.973633 v 31.043701 c 0,1.845703 1.07666,2.973633 2.871094,2.973633 z m 2.871094,-4.973145 V 20.282185 h 6.767578 c 7.818603,0 12.176513,4.819336 12.176513,13.535156 0,8.741455 -4.332275,13.535156 -12.176513,13.535156 z"
           id="D"
           style="font-weight:500;font-size:52.5px;font-family:SFProRounded-Semibold, 'SF Pro Rounded';fill:#314b95;fill-opacity:1"
           aria-label="D" />
      </g>
    </g>
  </g>
</svg>
