<?xml version="1.0" encoding="UTF-8" standalone="no"?>
<svg
   width="60px"
   height="60px"
   viewBox="0 0 60 60"
   version="1.1"
   id="svg1"
   sodipodi:docname="pause_call.svg"
   inkscape:version="1.3.2 (091e20e, 2023-11-25)"
   xmlns:inkscape="http://www.inkscape.org/namespaces/inkscape"
   xmlns:sodipodi="http://sodipodi.sourceforge.net/DTD/sodipodi-0.dtd"
   xmlns="http://www.w3.org/2000/svg"
   xmlns:svg="http://www.w3.org/2000/svg">
  <defs
     id="defs1" />
  <sodipodi:namedview
     id="namedview1"
     pagecolor="#ffffff"
     bordercolor="#000000"
     borderopacity="0.25"
     inkscape:showpageshadow="2"
     inkscape:pageopacity="0.0"
     inkscape:pagecheckerboard="0"
     inkscape:deskcolor="#d1d1d1"
     inkscape:zoom="3.9333333"
     inkscape:cx="30"
     inkscape:cy="31.525424"
     inkscape:window-width="1312"
     inkscape:window-height="449"
     inkscape:window-x="2116"
     inkscape:window-y="165"
     inkscape:window-maximized="0"
     inkscape:current-layer="svg1" />
  <title
     id="title1">􀊘</title>
  <g
     id="Page-2-Copy"
     stroke="none"
     stroke-width="1"
     fill="none"
     fill-rule="evenodd"
     font-family="SFProRounded-Medium, SF Pro Rounded"
     font-size="50"
     font-weight="400">
    <g
       id="Apple-TV"
       transform="translate(-1122, -967)"
       fill="#BABFB8">
      <path
         d="m 1151.2725,1022.2754 c 13.623,0 24.9023,-11.3037 24.9023,-24.90235 0,-13.62305 -11.3037,-24.90235 -24.9268,-24.90235 -13.5986,0 -24.8779,11.2793 -24.8779,24.90235 0,13.59865 11.3037,24.90235 24.9024,24.90235 z m -7.1045,-15.0879 c -1.2451,0 -1.8067,-0.6836 -1.8067,-1.6602 v -16.35738 c 0,-0.95215 0.5616,-1.63574 1.8067,-1.63574 h 2.4658 c 1.2695,0 1.831,0.68359 1.831,1.63574 v 16.35738 c 0,0.9766 -0.5615,1.6602 -1.831,1.6602 z m 11.792,0 c -1.2696,0 -1.8311,-0.6836 -1.8311,-1.6602 v -16.35738 c 0,-0.95215 0.5615,-1.63574 1.8311,-1.63574 h 2.4658 c 1.2207,0 1.7822,0.68359 1.7822,1.63574 v 16.35738 c 0,0.9766 -0.5615,1.6602 -1.7822,1.6602 z"
         id="􀊘"
         aria-label="􀊘" />
    </g>
  </g>
</svg>
