<svg xmlns="http://www.w3.org/2000/svg" width="38" height="38" viewBox="0 0 38 38"><path fill="#393939" fill-rule="evenodd"
                                                                                         d="M5.703 21.813c0 5.703 3.063 7.796 11.938 12.796.406.22.797.313 1.047.313.25 0 .656-.094 1.046-.313 8.891-4.984 11.938-7.093 11.938-12.797V9.86c0-1.64-.703-2.156-2.031-2.718-1.844-.766-7.797-2.907-9.641-3.547a4.223 4.223 0 0 0-1.313-.235c-.437 0-.89.125-1.296.235-1.844.531-7.813 2.797-9.657 3.547-1.312.546-2.03 1.078-2.03 2.718zM19.016 32.03V5.921c.078.016.172.048.297.095 2.359.937 6.937 2.593 9.359 3.421.422.157.515.376.515.907v10.89c0 4.828-2.312 6.094-9.53 10.485a2.173 2.173 0 0 1-.641.312z"/></svg>
