<?xml version="1.0" encoding="UTF-8" standalone="no"?>
<svg
   width="38px"
   height="38px"
   viewBox="0 0 38 38"
   version="1.1"
   id="svg1"
   sodipodi:docname="shield.svg"
   inkscape:version="1.3.2 (091e20e, 2023-11-25)"
   xmlns:inkscape="http://www.inkscape.org/namespaces/inkscape"
   xmlns:sodipodi="http://sodipodi.sourceforge.net/DTD/sodipodi-0.dtd"
   xmlns="http://www.w3.org/2000/svg"
   xmlns:svg="http://www.w3.org/2000/svg">
  <defs
     id="defs1" />
  <sodipodi:namedview
     id="namedview1"
     pagecolor="#ffffff"
     bordercolor="#000000"
     borderopacity="0.25"
     inkscape:showpageshadow="2"
     inkscape:pageopacity="0.0"
     inkscape:pagecheckerboard="0"
     inkscape:deskcolor="#d1d1d1"
     inkscape:zoom="6.2105263"
     inkscape:cx="19"
     inkscape:cy="19"
     inkscape:window-width="1920"
     inkscape:window-height="1027"
     inkscape:window-x="1920"
     inkscape:window-y="25"
     inkscape:window-maximized="1"
     inkscape:current-layer="svg1" />
  <title
     id="title1">􀙨</title>
  <g
     id="Page-2-Copy"
     stroke="none"
     stroke-width="1"
     fill="none"
     fill-rule="evenodd"
     font-family="SFProRounded-Medium, SF Pro Rounded"
     font-size="32"
     font-weight="400">
    <g
       id="Apple-TV"
       transform="translate(-1282, -162)"
       fill="#393939">
      <g
         id="Group"
         transform="translate(1282, 160)">
        <path
           d="m 5.703125,23.8125 c 0,5.703125 3.0625,7.796875 11.9375,12.796875 0.40625,0.21875 0.796875,0.3125 1.046875,0.3125 0.25,0 0.65625,-0.09375 1.046875,-0.3125 C 28.625,31.625 31.671875,29.515625 31.671875,23.8125 V 11.859375 c 0,-1.640625 -0.703125,-2.15625 -2.03125,-2.71875 C 27.796875,8.375 21.84375,6.234375 20,5.59375 19.578125,5.453125 19.125,5.359375 18.6875,5.359375 c -0.4375,0 -0.890625,0.125 -1.296875,0.234375 -1.84375,0.53125 -7.8125,2.796875 -9.65625,3.546875 -1.3125,0.546875 -2.03125,1.078125 -2.03125,2.71875 z m 13.3125,10.21875 V 7.921875 C 19.09375,7.9375 19.1875,7.96875 19.3125,8.015625 c 2.359375,0.9375 6.9375,2.59375 9.359375,3.421875 0.421875,0.15625 0.515625,0.375 0.515625,0.90625 v 10.890625 c 0,4.828125 -2.3125,6.09375 -9.53125,10.484375 -0.234375,0.15625 -0.453125,0.265625 -0.640625,0.3125 z"
           id="􀙨"
           aria-label="􀙨" />
      </g>
    </g>
  </g>
</svg>
