<?xml version="1.0" encoding="UTF-8" standalone="no"?>
<svg
   width="46px"
   height="41px"
   viewBox="0 0 46 41"
   version="1.1"
   id="svg1"
   sodipodi:docname="snifsnif.svg"
   inkscape:version="1.3.2 (091e20e, 2023-11-25)"
   xmlns:inkscape="http://www.inkscape.org/namespaces/inkscape"
   xmlns:sodipodi="http://sodipodi.sourceforge.net/DTD/sodipodi-0.dtd"
   xmlns="http://www.w3.org/2000/svg"
   xmlns:svg="http://www.w3.org/2000/svg">
  <defs
     id="defs1" />
  <sodipodi:namedview
     id="namedview1"
     pagecolor="#ffffff"
     bordercolor="#000000"
     borderopacity="0.25"
     inkscape:showpageshadow="2"
     inkscape:pageopacity="0.0"
     inkscape:pagecheckerboard="0"
     inkscape:deskcolor="#d1d1d1"
     inkscape:zoom="5.7560976"
     inkscape:cx="22.932203"
     inkscape:cy="20.5"
     inkscape:window-width="1920"
     inkscape:window-height="1027"
     inkscape:window-x="1920"
     inkscape:window-y="25"
     inkscape:window-maximized="1"
     inkscape:current-layer="svg1" />
  <title
     id="title1">􀻾</title>
  <g
     id="Page-2-Copy"
     stroke="none"
     stroke-width="1"
     fill="none"
     fill-rule="evenodd"
     font-family="SFProRounded-Medium, 'SF Pro Rounded'"
     font-size="35px"
     font-weight="400"
     transform="translate(-1.4812011,-0.22096445)">
    <g
       id="Apple-TV"
       transform="translate(-315,-134)"
       fill="#000000">
      <g
         id="Group-2-Copy"
         transform="translate(315,133.9559)">
        <path
           d="m 17.209473,38.564137 c 0.786132,0 1.401367,-0.615235 1.401367,-1.384278 V 4.2477303 c 0,-0.769043 -0.615235,-1.3842774 -1.401367,-1.3842774 -0.769043,0 -1.350098,0.6152344 -1.350098,1.3842774 V 37.179859 c 0,0.769043 0.581055,1.384278 1.350098,1.384278 z M 27.34375,22.192066 c 0.769043,-0.905762 1.691895,-1.657715 2.751465,-2.17041 V 8.0245857 c 0,-0.7519531 -0.598145,-1.3842773 -1.367188,-1.3842773 -0.803222,0 -1.384277,0.6323242 -1.384277,1.3842773 z m -15.876465,9.484863 c 0.786133,0 1.384278,-0.615234 1.384278,-1.384277 V 11.134937 c 0,-0.769043 -0.598145,-1.4013669 -1.384278,-1.4013669 -0.769043,0 -1.367187,0.6323239 -1.367187,1.4013669 v 19.157715 c 0,0.769043 0.598144,1.384277 1.367187,1.384277 z m 11.501465,-2.08496 c 0.786133,0 1.384277,-0.598145 1.384277,-1.367188 V 13.202808 c 0,-0.769043 -0.598144,-1.384277 -1.384277,-1.384277 -0.786133,0 -1.367188,0.615234 -1.367188,1.384277 v 15.021973 c 0,0.769043 0.581055,1.367188 1.367188,1.367188 z M 33.103027,19.115894 c 0.922852,-0.119629 1.828614,-0.102539 2.751465,0.06836 v -2.546387 c 0,-0.751953 -0.615234,-1.384277 -1.384277,-1.384277 -0.786133,0 -1.367188,0.632324 -1.367188,1.384277 z M 5.7080078,24.687183 c 0.8032227,0 1.4013672,-0.615234 1.4013672,-1.384277 v -5.178223 c 0,-0.769043 -0.5981445,-1.401367 -1.4013672,-1.401367 -0.769043,0 -1.3500976,0.632324 -1.3500976,1.401367 v 5.178223 c 0,0.769043 0.5810546,1.384277 1.3500976,1.384277 z M 34.196777,35.026539 c 1.350098,0 2.597657,-0.375977 3.674317,-1.042481 l 4.169922,4.152832 c 0.341796,0.341797 0.700683,0.529786 1.179199,0.529786 0.803222,0 1.384277,-0.615235 1.384277,-1.452637 0,-0.375977 -0.205078,-0.734863 -0.478515,-1.008301 l -4.187012,-4.221191 c 0.734863,-1.11084 1.162109,-2.426758 1.162109,-3.862305 0,-3.793945 -3.093262,-6.887207 -6.904297,-6.887207 -3.776855,0 -6.887207,3.110352 -6.887207,6.887207 0,3.793945 3.110352,6.904297 6.887207,6.904297 z m 0,-2.290039 c -2.512207,0 -4.597168,-2.084961 -4.597168,-4.614258 0,-2.495117 2.084961,-4.580078 4.597168,-4.580078 2.529297,0 4.597168,2.067871 4.597168,4.580078 0,2.529297 -2.067871,4.614258 -4.597168,4.614258 z"
           id="􀻾"
           aria-label="􀻾" />
      </g>
    </g>
  </g>
</svg>
