<?xml version="1.0" encoding="UTF-8" standalone="no"?>
<svg
   width="60px"
   height="60px"
   viewBox="0 0 60 60"
   version="1.1"
   id="svg1"
   sodipodi:docname="stop_call.svg"
   inkscape:version="1.3.2 (091e20e, 2023-11-25)"
   xmlns:inkscape="http://www.inkscape.org/namespaces/inkscape"
   xmlns:sodipodi="http://sodipodi.sourceforge.net/DTD/sodipodi-0.dtd"
   xmlns="http://www.w3.org/2000/svg"
   xmlns:svg="http://www.w3.org/2000/svg">
  <defs
     id="defs1" />
  <sodipodi:namedview
     id="namedview1"
     pagecolor="#ffffff"
     bordercolor="#000000"
     borderopacity="0.25"
     inkscape:showpageshadow="2"
     inkscape:pageopacity="0.0"
     inkscape:pagecheckerboard="0"
     inkscape:deskcolor="#d1d1d1"
     inkscape:zoom="3.9333333"
     inkscape:cx="38.898305"
     inkscape:cy="33.305085"
     inkscape:window-width="1920"
     inkscape:window-height="1027"
     inkscape:window-x="1920"
     inkscape:window-y="25"
     inkscape:window-maximized="1"
     inkscape:current-layer="svg1" />
  <title
     id="title1">􀒨 copy</title>
  <g
     id="Page-2-Copy"
     stroke="none"
     stroke-width="1"
     fill="none"
     fill-rule="evenodd"
     font-family="SFProRounded-Medium, SF Pro Rounded"
     font-size="50"
     font-weight="400">
    <g
       id="Apple-TV"
       transform="translate(-1197, -967)"
       fill="#FF3636">
      <path
         d="m 1226.2725,1022.2998 c 13.623,0 24.9023,-11.2793 24.9023,-24.90234 0,-13.59863 -11.3037,-24.90234 -24.9268,-24.90234 -13.5986,0 -24.8779,11.30371 -24.8779,24.90234 0,13.62304 11.3037,24.90234 24.9024,24.90234 z m -17.1387,-22.48535 v -0.24414 c 0,-6.73828 8.8623,-9.88769 17.1387,-9.88769 8.2763,0 17.1386,3.14941 17.1386,9.88769 v 0.24414 c 0,1.87985 -0.9277,3.34475 -2.832,3.34475 -1.416,0 -3.0762,-0.073 -5.9082,-0.9278 -1.6113,-0.4882 -2.3193,-1.2695 -2.3682,-3.05171 l -0.024,-1.58692 c 0,-0.26855 -0.1465,-0.46386 -0.5127,-0.58593 -0.8545,-0.26856 -2.832,-0.61036 -5.4931,-0.61036 -2.6612,0 -4.6387,0.3418 -5.4932,0.61036 -0.3662,0.12207 -0.5127,0.31738 -0.5127,0.58593 l -0.024,1.58692 c -0.024,1.78221 -0.7324,2.56351 -2.3682,3.05171 -2.832,0.8545 -4.4922,0.9278 -5.9082,0.9278 -1.9043,0 -2.832,-1.4649 -2.832,-3.34475 z"
         id="􀒨-copy"
         aria-label="􀒨" />
    </g>
  </g>
</svg>
