<svg xmlns="http://www.w3.org/2000/svg" width="38" height="37"    viewBox="0 0 38 37"><path fill-rule="evenodd"
                                                                      d="M20.581 35.826c5.405 0 8.73-1.919 8.73-5.23v-7.148c2.3-2.007 3.633-5.23 3.633-8.76 0-8.247-5.39-13.754-13.403-13.754-7.983 0-13.33 5.376-13.33 13.447 0 .454.015.835.059 1.216l-1.788 3.222c-.512.88-.747 1.744-.747 2.535 0 1.508.923 2.753 2.49 3.164v2.812c0 2.637 1.876 3.955 4.263 3.691l1.51-.146c.175 3.12 3.398 4.951 8.583 4.951zm0-2.358c-3.955 0-6.357-1.26-6.357-3.281v-1.67c0-.205-.103-.279-.279-.264l-3.764.425c-1.026.102-1.597-.352-1.597-1.524v-4.38c0-.131-.088-.22-.278-.22h-.674c-.952 0-1.509-.483-1.509-1.23 0-.395.132-.864.396-1.333L8.7 16.065a11.302 11.302 0 0 1-.132-1.728c0-6.621 4.38-11.045 10.972-11.045 6.621 0 11.045 4.541 11.045 11.396 0 3.282-1.377 6.153-3.648 7.603l.015 7.896c0 2.021-2.402 3.28-6.372 3.28zm-5.918-17.095c1.729 0 2.944-1.128 2.944-2.725 0-.556-.175-1.01-.468-1.318-.25-.234-.337-.469-.337-.66 0-.35.307-.629.688-.629.147 0 .366.03.513.19a.858.858 0 0 1 .205.323c1.143-.161 1.714-.835 1.714-1.934 0-.38.307-.688.674-.688.366 0 .688.322.688.688.015 1.685-.835 2.74-2.431 3.106.087.307.117.63.117.952 0 1.435-.718 2.578-1.89 3.222.66.367 1.45.542 2.3.542.38 0 .776-.044 1.172-.117a1.917 1.917 0 0 1-.103-.644c0-3.721 5.508-4.38 5.508-7.735 0-1.655-1.289-2.944-2.9-2.944-.586 0-.747.015-.909.059-.6-.689-1.479-1.084-2.285-1.084-1.42 0-2.431.878-2.446 2.226 0 .41-.293.689-.688.689a.662.662 0 0 1-.674-.733c0-.6.175-1.01.337-1.391a4.12 4.12 0 0 0-.718-.074c-1.758 0-3.106 1.099-3.106 2.505 0 .908.63 1.597 1.465 1.597.396 0 .718.308.718.674 0 .38-.337.703-.718.703-1.186 0-2.124-.571-2.549-1.465a4.354 4.354 0 0 0-.747 2.417c0 2.402 1.553 4.248 3.926 4.248zm10.957 3.955c1.553 0 2.666-1.787 2.666-4.263 0-.19 0-.41-.014-.63-.572.264-1.26.381-2.037.337-.38-.043-.659-.336-.659-.703 0-.38.322-.703.689-.673 1.596.102 2.636-.777 2.636-2.198 0-1.303-.644-2.402-1.699-3.003-.395 4.043-5.552 4.585-5.552 7.456 0 .835.572 1.421 1.539 1.421h.234c.249 1.333 1.113 2.256 2.197 2.256z"  /></svg>
