<svg xmlns="http://www.w3.org/2000/svg" width="39" height="36" viewBox="0 0 39 36"><path fill="#5BED1B" fill-rule="evenodd"
                                                                      d="M10.386 31.124h3.178c.293 0 .513.088.733.308l2.256 2.24c1.845 1.861 3.56 1.847 5.405 0l2.256-2.24c.234-.22.44-.308.747-.308h3.164c2.622 0 3.838-1.201 3.838-3.838v-3.164c0-.308.088-.513.308-.747l2.24-2.256c1.861-1.846 1.846-3.56 0-5.405l-2.24-2.256a.954.954 0 0 1-.308-.732v-3.18c0-2.607-1.201-3.837-3.838-3.837h-3.164a.971.971 0 0 1-.747-.293l-2.256-2.241c-1.846-1.86-3.56-1.846-5.405 0l-2.256 2.241c-.22.22-.44.293-.733.293h-3.178c-2.622 0-3.838 1.201-3.838 3.838v3.179c0 .293-.073.512-.293.732l-2.241 2.256c-1.86 1.846-1.846 3.56 0 5.405l2.24 2.256c.22.234.294.44.294.747v3.164c0 2.622 1.216 3.838 3.838 3.838zm7.236-5.552c-.498 0-.908-.19-1.289-.703l-3.677-4.512c-.22-.293-.351-.63-.351-.952 0-.674.512-1.216 1.186-1.216.41 0 .733.147 1.099.63l2.973 3.838 6.255-10.049c.279-.454.66-.673 1.055-.673.63 0 1.23.439 1.23 1.113 0 .337-.19.674-.366.967l-6.884 10.854c-.308.469-.733.703-1.23.703z" /></svg>
