<svg xmlns="http://www.w3.org/2000/svg" width="46" height="41" viewBox="0 0 46 41"><path fill="#000" fill-rule="evenodd"
                                                                      d="M15.728 38.3c.786 0 1.402-.616 1.402-1.385V3.983c0-.77-.616-1.385-1.402-1.385-.769 0-1.35.616-1.35 1.385v32.932c0 .769.581 1.384 1.35 1.384zm10.135-16.373c.769-.906 1.691-1.658 2.751-2.17V7.76c0-.752-.598-1.385-1.367-1.385-.803 0-1.384.633-1.384 1.385zM9.986 31.412c.786 0 1.384-.615 1.384-1.384V10.87c0-.77-.598-1.401-1.384-1.401-.769 0-1.367.632-1.367 1.4v19.159c0 .769.598 1.384 1.367 1.384zm11.502-2.085c.786 0 1.384-.598 1.384-1.367V12.938c0-.77-.598-1.385-1.384-1.385-.787 0-1.368.616-1.368 1.385V27.96a1.34 1.34 0 0 0 1.368 1.367zM31.622 18.85a8.748 8.748 0 0 1 2.751.068v-2.546a1.39 1.39 0 0 0-1.384-1.384c-.786 0-1.367.632-1.367 1.384zM4.227 24.422c.803 0 1.401-.615 1.401-1.384V17.86c0-.77-.598-1.402-1.401-1.402-.77 0-1.35.633-1.35 1.402v5.178c0 .769.58 1.384 1.35 1.384zm28.489 10.34c1.35 0 2.597-.377 3.674-1.043l4.17 4.153c.342.342.7.53 1.179.53.803 0 1.384-.616 1.384-1.453 0-.376-.205-.735-.478-1.008l-4.187-4.222a6.949 6.949 0 0 0 1.162-3.862c0-3.794-3.093-6.887-6.904-6.887-3.777 0-6.888 3.11-6.888 6.887 0 3.794 3.11 6.904 6.888 6.904zm0-2.29c-2.513 0-4.598-2.086-4.598-4.615 0-2.495 2.085-4.58 4.598-4.58 2.529 0 4.597 2.068 4.597 4.58 0 2.53-2.068 4.614-4.597 4.614z" /></svg>
