<svg xmlns="http://www.w3.org/2000/svg" width="60" height="60"    viewBox="0 0 60 60"><path fill="#FF3636" fill-rule="evenodd"
                                                                      d="M29.273 55.3c13.623 0 24.902-11.28 24.902-24.903 0-13.598-11.304-24.902-24.927-24.902C15.649 5.495 4.37 16.8 4.37 30.397 4.37 44.021 15.674 55.3 29.273 55.3zm-17.14-22.486v-.244c0-6.738 8.863-9.887 17.14-9.887 8.276 0 17.138 3.149 17.138 9.887v.244c0 1.88-.928 3.345-2.832 3.345-1.416 0-3.076-.073-5.908-.928-1.611-.488-2.32-1.27-2.368-3.051l-.024-1.587c0-.269-.147-.464-.513-.586-.854-.269-2.832-.61-5.493-.61-2.661 0-4.639.341-5.493.61-.366.122-.513.317-.513.586l-.024 1.587c-.024 1.782-.732 2.563-2.368 3.051-2.832.855-4.492.928-5.908.928-1.905 0-2.832-1.465-2.832-3.345z"/></svg>
